<svg width="1040" height="717" viewBox="0 0 1040 717" fill="none" xmlns="http://www.w3.org/2000/svg">
<g clip-path="url(#clip0_1_3)">
<rect width="1040" height="717" fill="white"/>
<rect y="433" width="1064" height="211" fill="#66C196"/>
<path d="M730.5 558.5L761 555.5L823.5 542.5L859.5 517L880.5 504.5L900 496.5L919 504L876 527L848.5 555.5L807.5 571.5L775.5 573L751 582.5L730.5 558.5Z" fill="#9E5D3F" stroke="#6A3E2A" stroke-width="2"/>
<path d="M899.5 461H823.5L918 504.5H981.5L899.5 461Z" fill="#D9D9D9" stroke="#676666"/>
<rect y="643" width="1040" height="142" fill="#D9D9D9"/>
<path d="M528 553H726L803 644H461L528 553Z" fill="#D9D9D9"/>
<rect x="-53" width="1172" height="436" fill="#D2EEFC"/>
<rect x="844" y="366" width="6" height="93" fill="#F1EEEE" stroke="#E4E4E4" stroke-width="2"/>
<rect x="796" y="366" width="6" height="93" fill="#F1EEEE" stroke="#E4E4E4" stroke-width="2"/>
<path d="M873 483H887.5V490H734.5V462H855V471V473H857H871V481V483H873Z" fill="#9E5D3F"/>
<path d="M873 483H887.5V490H734.5V462H855V471V473H857H871V481V483H873Z" fill="black" fill-opacity="0.2"/>
<path d="M873 483H887.5V490H734.5V462H855V471V473H857H871V481V483H873Z" stroke="#6A3E2A" stroke-width="4"/>
<rect x="149" y="466" width="580" height="85" fill="white" stroke="black" stroke-width="8"/>
<rect x="149" y="369" width="621" height="94" fill="white" stroke="black" stroke-width="8"/>
<rect x="118" y="352" width="768" height="13" fill="#A9A9A9"/>
<path d="M221 295H754L879 352H118L221 295Z" fill="#7D604B"/>
<path d="M256.164 182H707.218L813 264H169L256.164 182Z" fill="#7D604B"/>
<rect x="169" y="264" width="644" height="13" fill="#A9A9A9"/>
<rect x="200" y="268" width="570" height="99" fill="white" stroke="black" stroke-width="8"/>
<path d="M520 547H409V540.206H418.719V533.865H427.926V527.071H437.134V521.182H446.341V514.841H456.06V508.047H464.756V501.253H473.963V494.912H483.171V488.571H492.378V481.776H502.097V475.888H511.304V470H520V547Z" fill="#8D8D8D" stroke="#676666"/>
<path d="M461 459V408.295H471.385V401.335H481.769V394.376H492.731V387.416H503.115V379.96H512.923V373H521V459H461Z" fill="#D9D9D9" stroke="#676666"/>
<path d="M426 458.5V415H461.5V422H471.5V429.5H480V436.5H489V443.5H498.5V450.5H507V458.5H426Z" fill="#8D8D8D" stroke="#676666"/>
<line x1="424" y1="373" x2="424" y2="459" stroke="#747474" stroke-width="4"/>
<line x1="473" y1="272" x2="473" y2="363" stroke="#747474" stroke-width="4"/>
<line y1="-2" x2="91.0055" y2="-2" transform="matrix(-0.0111104 0.999938 -0.999926 -0.0121678 539.011 272)" stroke="#747474" stroke-width="4"/>
<line x1="280" y1="470" x2="280" y2="547" stroke="#747474" stroke-width="4"/>
<line x1="522" y1="470.026" x2="521" y2="547.026" stroke="#747474" stroke-width="4"/>
<line x1="524" y1="373" x2="524" y2="459" stroke="#747474" stroke-width="4"/>
<rect x="483" y="286" width="49" height="77" fill="#D9D9D9"/>
<rect x="488.5" y="290.5" width="39" height="69" fill="#D9D9D9" fill-opacity="0.33" stroke="#8D8D8D"/>
<circle cx="494" cy="326" r="2.5" fill="#D9D9D9" stroke="#676666"/>
<path d="M184.125 511.438V510H185.375H236.5V541H186.375V516.875V515.875H185.375H184.125V515.375V514.375H183.125H183V512.438H183.125H184.125V511.438Z" fill="#F4F2F2" stroke="#444444" stroke-width="2"/>
<line x1="191.5" y1="509.75" x2="191.5" y2="541.25" stroke="black"/>
<line x1="197.875" y1="509.75" x2="197.875" y2="541.25" stroke="black"/>
<line x1="203.875" y1="509.75" x2="203.875" y2="541.25" stroke="black"/>
<line x1="210.25" y1="509" x2="210.25" y2="541.625" stroke="black"/>
<line x1="215.875" y1="509.75" x2="215.875" y2="541.625" stroke="black"/>
<line y1="-0.5" x2="32.625" y2="-0.5" transform="matrix(5.92219e-08 1 1 -3.22632e-08 237.125 509)" stroke="black"/>
<line y1="-0.5" x2="31.875" y2="-0.5" transform="matrix(5.9222e-08 1 1 -3.22632e-08 227 509.375)" stroke="black"/>
<line y1="-0.5" x2="31.875" y2="-0.5" transform="matrix(1.12803e-08 1 1 -1.69381e-07 221.375 509.75)" stroke="black"/>
<line y1="-0.5" x2="31.875" y2="-0.5" transform="matrix(1.12803e-08 1 1 -1.69381e-07 232.625 509.75)" stroke="black"/>
<line x1="185.625" y1="516.5" x2="185.625" y2="509.75" stroke="black"/>
<path d="M317.125 512.438V511H318.375H369.5V542H319.375V517.875V516.875H318.375H317.125V516.375V515.375H316.125H316V513.438H316.125H317.125V512.438Z" fill="#F4F2F2" stroke="#444444" stroke-width="2"/>
<line x1="324.5" y1="510.75" x2="324.5" y2="542.25" stroke="black"/>
<line x1="330.875" y1="510.75" x2="330.875" y2="542.25" stroke="black"/>
<line x1="336.875" y1="510.75" x2="336.875" y2="542.25" stroke="black"/>
<line x1="343.25" y1="510" x2="343.25" y2="542.625" stroke="black"/>
<line x1="348.875" y1="510.75" x2="348.875" y2="542.625" stroke="black"/>
<line y1="-0.5" x2="32.625" y2="-0.5" transform="matrix(5.92219e-08 1 1 -3.22632e-08 370.125 510)" stroke="black"/>
<line y1="-0.5" x2="31.875" y2="-0.5" transform="matrix(5.9222e-08 1 1 -3.22632e-08 360 510.375)" stroke="black"/>
<line y1="-0.5" x2="31.875" y2="-0.5" transform="matrix(1.12803e-08 1 1 -1.69381e-07 354.375 510.75)" stroke="black"/>
<line y1="-0.5" x2="31.875" y2="-0.5" transform="matrix(1.12803e-08 1 1 -1.69381e-07 365.625 510.75)" stroke="black"/>
<line x1="318.625" y1="517.5" x2="318.625" y2="510.75" stroke="black"/>
<path d="M540.125 512.438V511H541.375H592.5V542H542.375V517.875V516.875H541.375H540.125V516.375V515.375H539.125H539V513.438H539.125H540.125V512.438Z" fill="#F4F2F2" stroke="#444444" stroke-width="2"/>
<line x1="547.5" y1="510.75" x2="547.5" y2="542.25" stroke="black"/>
<line x1="553.875" y1="510.75" x2="553.875" y2="542.25" stroke="black"/>
<line x1="559.875" y1="510.75" x2="559.875" y2="542.25" stroke="black"/>
<line x1="566.25" y1="510" x2="566.25" y2="542.625" stroke="black"/>
<line x1="571.875" y1="510.75" x2="571.875" y2="542.625" stroke="black"/>
<line y1="-0.5" x2="32.625" y2="-0.5" transform="matrix(5.92219e-08 1 1 -3.22632e-08 593.125 510)" stroke="black"/>
<line y1="-0.5" x2="31.875" y2="-0.5" transform="matrix(5.9222e-08 1 1 -3.22632e-08 583 510.375)" stroke="black"/>
<line y1="-0.5" x2="31.875" y2="-0.5" transform="matrix(1.12803e-08 1 1 -1.69381e-07 577.375 510.75)" stroke="black"/>
<line y1="-0.5" x2="31.875" y2="-0.5" transform="matrix(1.12803e-08 1 1 -1.69381e-07 588.625 510.75)" stroke="black"/>
<line x1="541.625" y1="517.5" x2="541.625" y2="510.75" stroke="black"/>
<path d="M706.125 423.438V422H707.375H758.5V453H708.375V428.875V427.875H707.375H706.125V427.375V426.375H705.125H705V424.438H705.125H706.125V423.438Z" fill="#F4F2F2" stroke="#444444" stroke-width="2"/>
<line x1="713.5" y1="421.75" x2="713.5" y2="453.25" stroke="black"/>
<line x1="719.875" y1="421.75" x2="719.875" y2="453.25" stroke="black"/>
<line x1="725.875" y1="421.75" x2="725.875" y2="453.25" stroke="black"/>
<line x1="732.25" y1="421" x2="732.25" y2="453.625" stroke="black"/>
<line x1="737.875" y1="421.75" x2="737.875" y2="453.625" stroke="black"/>
<line y1="-0.5" x2="32.625" y2="-0.5" transform="matrix(5.92219e-08 1 1 -3.22632e-08 759.125 421)" stroke="black"/>
<line y1="-0.5" x2="31.875" y2="-0.5" transform="matrix(5.9222e-08 1 1 -3.22632e-08 749 421.375)" stroke="black"/>
<line y1="-0.5" x2="31.875" y2="-0.5" transform="matrix(1.12803e-08 1 1 -1.69381e-07 743.375 421.75)" stroke="black"/>
<line y1="-0.5" x2="31.875" y2="-0.5" transform="matrix(1.12803e-08 1 1 -1.69381e-07 754.625 421.75)" stroke="black"/>
<line x1="707.625" y1="428.5" x2="707.625" y2="421.75" stroke="black"/>
<path d="M252.125 423.438V422H253.375H304.5V453H254.375V428.875V427.875H253.375H252.125V427.375V426.375H251.125H251V424.438H251.125H252.125V423.438Z" fill="#F4F2F2" stroke="#444444" stroke-width="2"/>
<line x1="259.5" y1="421.75" x2="259.5" y2="453.25" stroke="black"/>
<line x1="265.875" y1="421.75" x2="265.875" y2="453.25" stroke="black"/>
<line x1="271.875" y1="421.75" x2="271.875" y2="453.25" stroke="black"/>
<line x1="278.25" y1="421" x2="278.25" y2="453.625" stroke="black"/>
<line x1="283.875" y1="421.75" x2="283.875" y2="453.625" stroke="black"/>
<line y1="-0.5" x2="32.625" y2="-0.5" transform="matrix(5.92219e-08 1 1 -3.22632e-08 305.125 421)" stroke="black"/>
<line y1="-0.5" x2="31.875" y2="-0.5" transform="matrix(5.9222e-08 1 1 -3.22632e-08 295 421.375)" stroke="black"/>
<line y1="-0.5" x2="31.875" y2="-0.5" transform="matrix(1.12803e-08 1 1 -1.69381e-07 289.375 421.75)" stroke="black"/>
<line y1="-0.5" x2="31.875" y2="-0.5" transform="matrix(1.12803e-08 1 1 -1.69381e-07 300.625 421.75)" stroke="black"/>
<line x1="253.625" y1="428.5" x2="253.625" y2="421.75" stroke="black"/>
<path d="M228.125 328.438V327H229.375H280.5V358H230.375V333.875V332.875H229.375H228.125V332.375V331.375H227.125H227V329.438H227.125H228.125V328.438Z" fill="#F4F2F2" stroke="#444444" stroke-width="2"/>
<line x1="235.5" y1="326.75" x2="235.5" y2="358.25" stroke="black"/>
<line x1="241.875" y1="326.75" x2="241.875" y2="358.25" stroke="black"/>
<line x1="247.875" y1="326.75" x2="247.875" y2="358.25" stroke="black"/>
<line x1="254.25" y1="326" x2="254.25" y2="358.625" stroke="black"/>
<line x1="259.875" y1="326.75" x2="259.875" y2="358.625" stroke="black"/>
<line y1="-0.5" x2="32.625" y2="-0.5" transform="matrix(5.92219e-08 1 1 -3.22632e-08 281.125 326)" stroke="black"/>
<line y1="-0.5" x2="31.875" y2="-0.5" transform="matrix(5.9222e-08 1 1 -3.22632e-08 271 326.375)" stroke="black"/>
<line y1="-0.5" x2="31.875" y2="-0.5" transform="matrix(1.12803e-08 1 1 -1.69381e-07 265.375 326.75)" stroke="black"/>
<line y1="-0.5" x2="31.875" y2="-0.5" transform="matrix(1.12803e-08 1 1 -1.69381e-07 276.625 326.75)" stroke="black"/>
<line x1="229.625" y1="333.5" x2="229.625" y2="326.75" stroke="black"/>
<path d="M377.125 327.438V326H378.375H429.5V357H379.375V332.875V331.875H378.375H377.125V331.375V330.375H376.125H376V328.438H376.125H377.125V327.438Z" fill="#F4F2F2" stroke="#444444" stroke-width="2"/>
<line x1="384.5" y1="325.75" x2="384.5" y2="357.25" stroke="black"/>
<line x1="390.875" y1="325.75" x2="390.875" y2="357.25" stroke="black"/>
<line x1="396.875" y1="325.75" x2="396.875" y2="357.25" stroke="black"/>
<line x1="403.25" y1="325" x2="403.25" y2="357.625" stroke="black"/>
<line x1="408.875" y1="325.75" x2="408.875" y2="357.625" stroke="black"/>
<line y1="-0.5" x2="32.625" y2="-0.5" transform="matrix(5.92219e-08 1 1 -3.22632e-08 430.125 325)" stroke="black"/>
<line y1="-0.5" x2="31.875" y2="-0.5" transform="matrix(5.9222e-08 1 1 -3.22632e-08 420 325.375)" stroke="black"/>
<line y1="-0.5" x2="31.875" y2="-0.5" transform="matrix(1.12803e-08 1 1 -1.69381e-07 414.375 325.75)" stroke="black"/>
<line y1="-0.5" x2="31.875" y2="-0.5" transform="matrix(1.12803e-08 1 1 -1.69381e-07 425.625 325.75)" stroke="black"/>
<line x1="378.625" y1="332.5" x2="378.625" y2="325.75" stroke="black"/>
<path d="M702.125 327.438V326H703.375H754.5V357H704.375V332.875V331.875H703.375H702.125V331.375V330.375H701.125H701V328.438H701.125H702.125V327.438Z" fill="#F4F2F2" stroke="#444444" stroke-width="2"/>
<line x1="709.5" y1="325.75" x2="709.5" y2="357.25" stroke="black"/>
<line x1="715.875" y1="325.75" x2="715.875" y2="357.25" stroke="black"/>
<line x1="721.875" y1="325.75" x2="721.875" y2="357.25" stroke="black"/>
<line x1="728.25" y1="325" x2="728.25" y2="357.625" stroke="black"/>
<line x1="733.875" y1="325.75" x2="733.875" y2="357.625" stroke="black"/>
<line y1="-0.5" x2="32.625" y2="-0.5" transform="matrix(5.92219e-08 1 1 -3.22632e-08 755.125 325)" stroke="black"/>
<line y1="-0.5" x2="31.875" y2="-0.5" transform="matrix(5.9222e-08 1 1 -3.22632e-08 745 325.375)" stroke="black"/>
<line y1="-0.5" x2="31.875" y2="-0.5" transform="matrix(1.12803e-08 1 1 -1.69381e-07 739.375 325.75)" stroke="black"/>
<line y1="-0.5" x2="31.875" y2="-0.5" transform="matrix(1.12803e-08 1 1 -1.69381e-07 750.625 325.75)" stroke="black"/>
<line x1="703.625" y1="332.5" x2="703.625" y2="325.75" stroke="black"/>
<path d="M715 521.5V551.5H729V464.5M729 464.5H770V451M729 464.5H521.5M755.5 354H770V451M770 451H759.5M305.5 450.5H309.5V464.5H521.5M521.5 464.5V371H435.5M430.5 354H435.5V371M435.5 371H286C286 370.2 286 360 286 355H281" stroke="#043AF7" stroke-width="2"/>
<path d="M755.5 327.5H767L767.716 423.5M726 461.5H768L767.716 423.5M726 461.5V548.5H711V522M726 461.5H526H426H315.5V425.5H305.5M767.716 423.5H759.5M281.5 331H289.5V366.5H441M441 366.5H526L525.5 462M441 366.5V331H430.5M697 522V548.5H603.5M603.5 548.5V517H593M603.5 548.5H380M237.5 515.5H247.5V548.5H380M380 548.5V515.5H371" stroke="#F70404" stroke-width="2"/>
<path d="M701.5 521.5V551.5H601M237 536.5H244V551.5H374.5H376.5M376.5 551.5V539H370.5M376.5 551.5H601M601 551.5V539.5H593.5" stroke="#043AF7" stroke-width="2"/>
<rect x="695" y="477" width="22" height="44" fill="#F4F2F2" stroke="black" stroke-width="2"/>
<line x1="695" y1="506.5" x2="717" y2="506.5" stroke="black"/>
<circle cx="701" cy="514" r="2.75" fill="#D9D9D9" stroke="black" stroke-width="0.5"/>
<circle cx="711" cy="514" r="2.75" fill="#D9D9D9" stroke="black" stroke-width="0.5"/>
<rect x="625.25" y="406.25" width="13.5" height="13.5" fill="#D9D9D9" stroke="#6A6363" stroke-width="0.5"/>
<rect x="627" y="408" width="10" height="5" fill="#141313"/>
<circle cx="632" cy="416" r="1" fill="#131212"/>
<path d="M632 420.5V496.5H694.5" stroke="black" stroke-width="1.5" stroke-dasharray="3 3"/>
</g>
<defs>
<clipPath id="clip0_1_3">
<rect width="1040" height="717" fill="white"/>
</clipPath>
</defs>
</svg>
